<?xml version="1.0" encoding="utf-8"?>
  <!-- Generator: Adobe Illustrator 19.0.0, SVG Export Plug-In . SVG Version: 6.00 Build 0)  -->
  <svg version="1.1" id="logo" xmlns="http://www.w3.org/2000/svg" xmlns:xlink="http://www.w3.org/1999/xlink" x="0px" y="0px" viewBox="569 572 1750 350" style="enable-background:new 569 572 1750 350;" xml:space="preserve">
    <style type="text/css">
      path {
        fill: #45B6F7;
      }
    </style>
    <g>
      <g>
        <path d="M761.5,871.7c0,0-50.7,41.1-71.2,41.1s-71.1-41.1-71.1-41.1H761.5L761.5,871.7z" />
        <path d="M696.8,863.8c0,0-64.4,10.3-82.2,0s-41-71.2-41-71.2L696.8,863.8z" />
        <path d="M644.8,824.5c0,0-61-23.3-71.2-41.1c-10.3-17.8,0.1-82.2,0.1-82.2L644.8,824.5z" />
        <path d="M619.3,764.6c0,0-41.1-50.7-41.1-71.2c0-20.5,41.1-71.1,41.1-71.1V764.6z" />
        <path d="M627.2,699.8c0,0-10.3-64.4,0-82.2c10.3-17.8,71.2-41,71.2-41L627.2,699.8z" />
        <path d="M666.4,647.8c0,0,23.3-61,41.1-71.2c17.8-10.3,82.2,0.1,82.2,0.1L666.4,647.8z" />
        <path d="M726.4,622.3c0,0,50.7-41.1,71.2-41.1s71.1,41.1,71.1,41.1H726.4z" />
        <path d="M955.5,630.3c0,0,64.4-10.3,82.2,0c17.8,10.3,41,71.2,41,71.2L955.5,630.3z" />
        <path d="M843.1,669.5c0,0,61,23.3,71.2,41.1c10.3,17.8-0.1,82.2-0.1,82.2L843.1,669.5z" />
        <path d="M868.6,729.5c0,0,41.1,50.7,41.1,71.2s-41.1,71.1-41.1,71.1V729.5L868.6,729.5z" />
        <path d="M860.6,794.2c0,0,10.3,64.4,0,82.2s-71.2,41-71.2,41L860.6,794.2z" />
        <path d="M821.4,846.2c0,0-23.3,61-41.1,71.2c-17.8,10.3-82.2-0.1-82.2-0.1L821.4,846.2z" />
      </g>
      <g>
        <path d="M1056.3,899.7l-10.5-171.8h23.3l4,85c0.2,4.1,0.6,15.1,1.2,33c0.2,5,0.2,8.5,0.2,10.5c0,1.3,0,5.2-0.1,11.6
      c9.5-19.5,16.4-33.3,20.6-41.2l52.3-98.9h23.7l5.7,100.4c0.6,11.5,1.1,25.3,1.3,41.5c1.4-4,3.9-9.9,7.5-17.8
      c5.7-12.7,9.9-21.8,12.7-27.3l49-96.8h23.4l-87.4,171.8h-24.6l-5.7-104.1c-0.5-8.9-1-19.8-1.3-32.8c-4.8,10.9-8.8,19.3-12,25.3
      L1080,899.7H1056.3z" />
        <path d="M1253.1,899.7l36-171.8h124l-4.1,19.6h-101l-11.2,53.4h98.4l-4.1,19.6h-98.4l-12.4,59.8h108.2l-4.1,19.5
      L1253.1,899.7L1253.1,899.7z" />
        <path d="M1413,899.7l35.9-171.8h51.8c12.4,0,21.9,0.9,28.5,2.7c9.4,2.4,17.4,6.7,24,12.9c6.6,6.2,11.6,14,15,23.3
      s5,19.7,5,31.3c0,13.8-2.1,26.4-6.3,37.8c-4.2,11.4-9.6,21.4-16.4,30c-6.8,8.6-13.8,15.4-21.2,20.3c-7.4,4.9-16.1,8.5-26.2,10.8
      c-7.7,1.8-17.1,2.7-28.2,2.7H1413z M1440.1,880.3h27.2c12.3,0,23.2-1.1,32.7-3.4c5.9-1.4,11-3.5,15.2-6.2
      c5.5-3.5,10.6-8.2,15.1-13.9c5.9-7.7,10.7-16.4,14.2-26.2c3.6-9.8,5.3-21,5.3-33.5c0-13.9-2.4-24.6-7.3-32.1
      c-4.8-7.5-11-12.4-18.5-14.8c-5.5-1.8-14.2-2.7-25.9-2.7h-30.4L1440.1,880.3z" />
        <path d="M1587.4,899.7l36-171.8h22.3l28.9,64.5c8.8,19.7,15.8,36.3,21,49.7c3,7.8,6.4,18.4,10.3,31.6
      c2.1-14.5,4.8-29.4,8-44.8l21.1-101h22.4l-35.9,171.8h-22.7l-42.7-99.3c-7.6-17.5-13.5-32.9-17.7-46.3
      c-1.2,11.2-3.4,24.9-6.8,41.1l-21.8,104.4L1587.4,899.7L1587.4,899.7z" />
        <path d="M1762.8,899.7l5-24h24l-5.2,24H1762.8z" />
        <path d="M1827.4,899.7l36-171.8h22.3l28.9,64.5c8.8,19.7,15.8,36.3,21,49.7c3,7.8,6.4,18.4,10.3,31.6
      c2.1-14.5,4.8-29.4,8-44.8l21.1-101h22.4l-35.9,171.8h-22.7l-42.7-99.3c-7.6-17.5-13.5-32.9-17.7-46.3
      c-1.2,11.2-3.4,24.9-6.8,41.1l-21.8,104.4L1827.4,899.7L1827.4,899.7z" />
        <path d="M1999.8,899.7l36-171.8h124l-4.1,19.6h-101l-11.2,53.4h98.4l-4.1,19.6h-98.4l-12.4,59.8h108l-4.1,19.5
      L1999.8,899.7L1999.8,899.7L1999.8,899.7z" />
        <path d="M2203.6,899.7l31.8-152.2H2179l4.1-19.6h135.2l-4.1,19.6h-55.9l-31.8,152.2H2203.6z" />
      </g>
    </g>
  </svg>
