<?xml version="1.0" encoding="iso-8859-1"?>
  <svg version="1.1" id="logo" xmlns="http://www.w3.org/2000/svg" xmlns:xlink="http://www.w3.org/1999/xlink" xml:space="preserve" viewBox="0 0 2100 350">
    <g id="XMLID_1_">
      <path id="XMLID_13_" d="M192.5,299.692c0,0-50.654,41.141-71.215,41.136
		c-20.545-0.005-71.142-41.136-71.142-41.136H192.5z" />
      <path id="XMLID_12_" d="M127.82,291.766c0,0-64.438,10.302-82.242,0.018
		c-17.79-10.276-41.042-71.196-41.042-71.196L127.82,291.766z" />
      <path id="XMLID_11_" d="M75.782,252.53c0,0-60.956-23.297-71.232-41.106
		c-10.268-17.795,0.054-82.179,0.054-82.179L75.782,252.53z" />
      <path id="XMLID_10_" d="M50.306,192.553c0,0-41.141-50.654-41.136-71.215
		c0.005-20.545,41.136-71.142,41.136-71.142V192.553z" />
      <path id="XMLID_9_" d="M58.22,127.834c0,0-10.302-64.438-0.018-82.242
		C68.479,27.802,129.398,4.55,129.398,4.55L58.22,127.834z" />
      <path id="XMLID_8_" d="M97.424,75.782c0,0,23.297-60.956,41.106-71.232
		c17.795-10.268,82.179,0.054,82.179,0.054L97.424,75.782z" />
      <path id="XMLID_7_" d="M157.422,50.334c0,0,50.654-41.141,71.215-41.136
		c20.545,0.005,71.142,41.136,71.142,41.136H157.422z" />
      <path id="XMLID_6_" d="M386.539,58.26c0,0,64.438-10.302,82.242-0.018
		c17.79,10.276,41.042,71.196,41.042,71.196L386.539,58.26z" />
      <path id="XMLID_5_" d="M274.13,97.504c0,0,60.956,23.297,71.232,41.106
		c10.268,17.794-0.054,82.179-0.054,82.179L274.13,97.504z" />
      <path id="XMLID_4_" d="M299.606,157.482c0,0,41.141,50.654,41.136,71.215
		c-0.005,20.545-41.136,71.142-41.136,71.142V157.482z" />
      <path id="XMLID_3_" d="M291.646,222.166c0,0,10.302,64.438,0.018,82.242
		c-10.276,17.79-71.196,41.042-71.196,41.042L291.646,222.166z" />
      <path id="XMLID_2_" d="M252.442,274.218c0,0-23.297,60.956-41.106,71.232
		c-17.795,10.268-82.179-0.054-82.179-0.054L252.442,274.218z" />
    </g>
    <g id="XMLID_41_">
      <path id="XMLID_42_" d="M550.519,135.798l41.7,166.802h1.2l43.8-166.802h34.2L715.22,302.6h1.2l41.7-166.802
		h36.9L733.22,350h-34.8l-43.501-165.302h-1.2L610.219,350h-35.101l-61.5-214.202H550.519z" />
      <path id="XMLID_44_" d="M971.418,135.798v27.9H850.217v62.4h114.002v27.9H850.217V322.1h126.302V350H817.517
		V135.798H971.418z" />
      <path id="XMLID_46_" d="M1087.816,135.798c34.5,0,60.6,9.6,78.6,29.1c16.801,18,25.201,44.101,25.201,78.001
		c0,33.6-8.701,59.701-25.801,78.301c-18,19.199-44.1,28.8-78.6,28.8h-77.402V135.798H1087.816z M1042.516,322.1h38.701
		c27,0,47.1-6.6,59.699-19.5c12.301-12.9,18.602-32.7,18.602-59.701c0-27.6-6.301-47.4-18.301-60c-12.6-12.9-32.4-19.2-59.4-19.2
		h-39.301V322.1z" />
      <path id="XMLID_49_" d="M1257.914,135.798L1367.416,295.1h1.199V135.798h32.701V350h-31.801
		l-110.701-161.102h-1.201V350h-32.699V135.798H1257.914z" />
      <path id="XMLID_51_" d="M1479.311,313.1c4.199,3.9,6.301,9,6.301,15.3c0,6.301-2.4,11.4-6.602,15.601
		c-4.199,3.9-9.6,6-15.6,6c-6.301,0-11.4-2.1-15.6-6.3c-4.201-4.2-6.301-9.301-6.301-15.301c0-6.3,2.1-11.399,6.301-15.3
		c4.199-4.2,9.299-6,15.6-6S1475.111,308.899,1479.311,313.1z" />
      <path id="XMLID_53_" d="M1558.207,135.798L1667.709,295.1h1.199V135.798h32.701V350h-31.801
		l-110.701-161.102h-1.201V350h-32.699V135.798H1558.207z" />
      <path id="XMLID_55_" d="M1897.805,135.798v27.9h-121.201v62.4h114.002v27.9h-114.002V322.1h126.301V350
		h-159.002V135.798H1897.805z" />
      <path id="XMLID_57_" d="M2095.203,135.798v27.9h-71.4V350h-32.4V163.698h-71.701v-27.9H2095.203z" />
    </g>
  </svg>
